<svg width="31" height="40" viewBox="0 0 31 40" fill="none" xmlns="http://www.w3.org/2000/svg">
<path d="M7.61499 8.71894C8.81202 4.95394 14.3317 0.990788 17.4905 0C16.8255 2.0146 15.8146 7.2922 17.0915 12.2858C18.3683 17.2794 25.6702 17.4049 29.1615 16.8434C32.6728 24.1356 30.3585 30.3842 28.7625 32.5969C26.9669 35.8665 22.2786 41.268 13.3009 39.7306C4.62241 38.2444 1.72962 31.7052 0.333067 26.1568C-0.863977 21.401 1.43034 15.6214 3.02638 13.3756C3.9042 20.0337 6.85024 22.0946 8.21353 22.2927C7.216 20.5093 5.92321 14.0401 7.61499 8.71894Z" fill="#081123"/>
<path d="M20.7823 11.295C19.2661 10.1853 19.4855 6.47315 19.7848 4.75578C21.0816 5.05302 24.0143 5.98436 25.3709 7.33183C27.0667 9.01617 26.5679 13.3756 26.1689 13.3756C25.7699 13.3756 22.6776 12.6821 20.7823 11.295Z" fill="#081123"/>
</svg>
