<svg width="48" height="37" viewBox="0 0 48 37" fill="none" xmlns="http://www.w3.org/2000/svg">
<path d="M12.5906 30.9998C14.7606 30.9983 16.902 31.4942 18.8505 32.4494C20.799 33.4045 22.5026 34.7936 23.8306 36.5098H24.3406V10.5098C24.3406 7.8576 23.287 5.31406 21.4116 3.4387C19.5363 1.56333 16.9927 0.509766 14.3406 0.509766H3.39057C3.05104 0.509637 2.71493 0.577581 2.40211 0.709583C2.08929 0.841585 1.80611 1.03496 1.56931 1.27829C1.33251 1.52162 1.1469 1.80995 1.02345 2.12624C0.900002 2.44253 0.841217 2.78036 0.850574 3.11977V36.5498H1.36057C2.68239 34.8264 4.38241 33.4297 6.3295 32.4675C8.27658 31.5052 10.4187 31.0031 12.5906 30.9998Z" fill="#081123"/>
<path d="M36.0798 31.0001C38.2507 30.9998 40.3926 31.4972 42.3412 32.4542C44.2897 33.4111 45.9929 34.802 47.3198 36.5201H47.8298V3.12008C47.8298 2.44643 47.5622 1.80037 47.0859 1.32403C46.6096 0.847685 45.9635 0.580078 45.2898 0.580078H34.3398C31.6877 0.580078 29.1441 1.63365 27.2688 3.50901C25.3934 5.38437 24.3398 7.92791 24.3398 10.5801V36.5801H24.8398C26.1622 34.8527 27.863 33.4515 29.8115 32.4842C31.7601 31.5168 33.9044 31.0091 36.0798 31.0001Z" fill="#081123"/>
</svg>
