<svg width="17" height="18" viewBox="0 0 17 18" fill="none" xmlns="http://www.w3.org/2000/svg">
<path d="M9.90142 9L16.9488 0.361657C17.0669 0.218098 16.9676 0 16.785 0H14.6426C14.5164 0 14.3956 0.0579754 14.3124 0.157362L8.5 7.28282L2.68761 0.157362C2.60707 0.0579754 2.48625 0 2.35739 0H0.214992C0.0324317 0 -0.0669027 0.218098 0.0512245 0.361657L7.09858 9L0.0512245 17.6383C0.0247629 17.6703 0.00778682 17.7095 0.002311 17.7511C-0.00316482 17.7927 0.00308965 17.8351 0.0203325 17.8732C0.0375753 17.9112 0.0650823 17.9434 0.099587 17.9659C0.134092 17.9884 0.174145 18.0002 0.214992 18H2.35739C2.48357 18 2.60438 17.942 2.68761 17.8426L8.5 10.7172L14.3124 17.8426C14.3929 17.942 14.5137 18 14.6426 18H16.785C16.9676 18 17.0669 17.7819 16.9488 17.6383L9.90142 9Z" fill="#ABABAB"/>
</svg>
