<svg width="54" height="56" viewBox="0 0 54 56" fill="none" xmlns="http://www.w3.org/2000/svg">
<path d="M25.5687 0H27.9898C34.0337 0 38.347 1.03965 42.022 2.99189C45.6969 4.94413 48.5811 7.80896 50.5465 11.4593C52.5119 15.1097 53.5585 19.3941 53.5585 25.3976V30.6024C53.5585 36.6059 52.5119 40.8903 50.5465 44.5407C48.5811 48.191 45.6969 51.0559 42.022 53.0081C38.347 54.9604 34.0337 56 27.9898 56H25.5687C19.5248 56 15.2115 54.9604 11.5366 53.0081C7.86158 51.0559 4.97745 48.191 3.01205 44.5407C1.04665 40.8903 0 36.6059 0 30.6024V25.3976C0 19.3941 1.04665 15.1097 3.01205 11.4593C4.97745 7.80896 7.86158 4.94413 11.5366 2.99189C15.2115 1.03965 19.5248 0 25.5687 0Z" fill="#F5A431"/>
<rect x="25" y="14" width="4" height="22" fill="#081123"/>
<rect x="25" y="38" width="4" height="4" fill="#081123"/>
</svg>
