<svg width="187" height="71" viewBox="0 0 187 71" fill="none" xmlns="http://www.w3.org/2000/svg">
<path d="M73.6864 34.1346C73.5826 34.0223 73.5308 33.8797 73.5308 33.7067V16.7712C73.5308 16.5811 73.5826 16.4299 73.6864 16.3173C73.7901 16.2051 73.9284 16.1488 74.1014 16.1488H75.3204C75.5102 16.1488 75.6617 16.2051 75.774 16.3173C75.8866 16.4299 75.9426 16.5811 75.9426 16.7712V23.2289L82.9711 16.5637C83.2476 16.2873 83.5844 16.1488 83.9826 16.1488H85.2792C85.4174 16.1488 85.5385 16.2006 85.6423 16.3044C85.746 16.4081 85.7982 16.5293 85.7982 16.6675C85.7982 16.806 85.7546 16.9183 85.6682 17.0047L77.5766 24.8369L86.2129 33.4214C86.2992 33.5251 86.3426 33.6463 86.3426 33.7845C86.3426 33.923 86.2907 34.0439 86.187 34.1476C86.0832 34.2513 85.9621 34.3032 85.8242 34.3032H84.4751C84.2328 34.3032 84.0427 34.2643 83.9048 34.1865C83.766 34.1087 83.6195 34.0094 83.4639 33.8882L75.9426 26.5488V33.7067C75.9426 33.8797 75.8818 34.0223 75.7613 34.1346C75.6399 34.2472 75.4928 34.3032 75.3204 34.3032H74.1014C73.9284 34.3032 73.7901 34.2472 73.6864 34.1346Z" fill="#454545"/>
<path d="M103.071 31.1521C103.901 30.3139 104.35 29.0301 104.419 27.3008C104.454 26.2634 104.471 25.5719 104.471 25.2262C104.471 24.846 104.454 24.1539 104.419 23.1513C104.35 21.4227 103.901 20.1344 103.071 19.287C102.241 18.4403 101.134 18.0161 99.7511 18.0161C98.3676 18.0161 97.257 18.4403 96.4182 19.287C95.5794 20.1344 95.1346 21.4227 95.0828 23.1513C95.065 23.6532 95.0568 24.3444 95.0568 25.2262C95.0568 26.091 95.065 26.7821 95.0828 27.3008C95.1346 29.0301 95.5756 30.3139 96.4052 31.1521C97.2352 31.991 98.3505 32.4101 99.7511 32.4101C101.134 32.4101 102.241 31.991 103.071 31.1521ZM94.5381 32.7861C93.3102 31.6019 92.6618 29.8164 92.5931 27.4305C92.5754 26.9118 92.5669 26.177 92.5669 25.2262C92.5669 24.2754 92.5754 23.5492 92.5931 23.0475C92.6618 20.6965 93.332 18.9154 94.6029 17.7049C95.8738 16.495 97.5895 15.8896 99.7511 15.8896C101.912 15.8896 103.624 16.495 104.886 17.7049C106.148 18.9154 106.814 20.6965 106.883 23.0475C106.918 24.0505 106.935 24.7767 106.935 25.2262C106.935 25.6586 106.918 26.3934 106.883 27.4305C106.814 29.8164 106.17 31.6019 104.951 32.7861C103.732 33.9704 101.998 34.5625 99.7511 34.5625C97.5031 34.5625 95.7653 33.9704 94.5381 32.7861Z" fill="#454545"/>
<path d="M122.392 32.1505C123.602 32.1505 124.566 31.9819 125.284 31.6447C126.001 31.3075 126.519 30.7806 126.84 30.0626C127.159 29.3455 127.336 28.3729 127.371 27.145C127.406 26.1078 127.423 25.4594 127.423 25.2001C127.423 24.9236 127.406 24.2837 127.371 23.2807C127.336 21.5521 126.926 20.2854 126.14 19.4813C125.353 18.6773 124.06 18.2753 122.262 18.2753H118.398V32.1505H122.392ZM116.116 34.1346C116.012 34.0223 115.96 33.8797 115.96 33.7067V16.7712C115.96 16.5811 116.012 16.4299 116.116 16.3173C116.219 16.2051 116.357 16.1488 116.531 16.1488H122.392C125.002 16.1488 126.887 16.7323 128.046 17.8992C129.204 19.0663 129.8 20.8259 129.835 23.177C129.852 23.6786 129.861 24.353 129.861 25.2001C129.861 26.0474 129.852 26.73 129.835 27.2487C129.8 28.8916 129.537 30.2274 129.044 31.2557C128.551 32.2846 127.777 33.0497 126.723 33.5511C125.668 34.0527 124.268 34.3032 122.522 34.3032H116.531C116.357 34.3032 116.219 34.2472 116.116 34.1346Z" fill="#454545"/>
<path d="M139.677 33.1749C138.441 32.2503 137.788 30.8887 137.719 29.0902C137.719 28.9345 137.771 28.8007 137.875 28.6881C137.978 28.5759 138.108 28.5196 138.264 28.5196H139.586C139.967 28.5196 140.183 28.7188 140.235 29.1161C140.339 30.2402 140.771 31.0702 141.531 31.606C142.292 32.1422 143.243 32.4097 144.384 32.4097C145.698 32.4097 146.714 31.9777 147.432 31.1129C148.149 30.2488 148.508 29.0816 148.508 27.6121V18.3274H139.249C139.076 18.3274 138.934 18.2714 138.821 18.1584C138.709 18.0465 138.653 17.9038 138.653 17.7308V16.7452C138.653 16.5725 138.709 16.4299 138.821 16.3173C138.934 16.205 139.076 16.1487 139.249 16.1487H150.375C150.565 16.1487 150.716 16.205 150.829 16.3173C150.941 16.4299 150.998 16.581 150.998 16.7711V27.664C150.998 29.0475 150.734 30.2573 150.207 31.2948C149.679 32.3319 148.914 33.136 147.911 33.7066C146.908 34.2772 145.724 34.5625 144.358 34.5625C142.474 34.5625 140.913 34.1001 139.677 33.1749Z" fill="#454545"/>
<path d="M160.723 34.1346C160.62 34.0223 160.568 33.8797 160.568 33.7067V16.7453C160.568 16.5726 160.62 16.4299 160.723 16.3173C160.827 16.2051 160.965 16.1488 161.138 16.1488H162.435C162.625 16.1488 162.772 16.2006 162.876 16.3044C162.98 16.4081 163.032 16.5552 163.032 16.7453V33.7067C163.032 33.8797 162.975 34.0223 162.863 34.1346C162.75 34.2472 162.608 34.3032 162.435 34.3032H161.138C160.965 34.3032 160.827 34.2472 160.723 34.1346Z" fill="#454545"/>
<path d="M172.938 34.1346C172.835 34.0223 172.783 33.8797 172.783 33.7067V16.7712C172.783 16.5811 172.835 16.4299 172.938 16.3173C173.042 16.2051 173.18 16.1488 173.353 16.1488H174.494C174.667 16.1488 174.797 16.1835 174.883 16.2525C174.97 16.3218 175.056 16.4081 175.143 16.5119L183.831 29.8943V16.7712C183.831 16.5811 183.887 16.4299 183.999 16.3173C184.112 16.2051 184.254 16.1488 184.427 16.1488H185.595C185.785 16.1488 185.936 16.2051 186.048 16.3173C186.161 16.4299 186.217 16.5811 186.217 16.7712V33.6804C186.217 33.8538 186.161 34.0008 186.048 34.1217C185.936 34.2428 185.793 34.3032 185.62 34.3032H184.453C184.159 34.3032 183.952 34.1824 183.831 33.9401L175.143 20.6874V33.7067C175.143 33.8797 175.086 34.0223 174.974 34.1346C174.861 34.2472 174.719 34.3032 174.546 34.3032H173.353C173.18 34.3032 173.042 34.2472 172.938 34.1346Z" fill="#454545"/>
<path d="M73.7689 54.5221C73.7056 54.4592 73.6743 54.3823 73.6743 54.2919V45.4838C73.6743 45.3845 73.7034 45.3035 73.7622 45.2402C73.8208 45.1773 73.8995 45.1454 73.9992 45.1454H79.8846C79.9839 45.1454 80.0652 45.1773 80.1281 45.2402C80.1911 45.3035 80.223 45.3845 80.223 45.4838V46.458C80.223 46.5485 80.1911 46.625 80.1281 46.688C80.0652 46.7512 79.9839 46.7828 79.8846 46.7828H75.5547V49.3265H79.6138C79.7132 49.3265 79.7944 49.3582 79.8577 49.4211C79.9206 49.4844 79.9523 49.5609 79.9523 49.6514V50.6256C79.9523 50.7157 79.9206 50.7923 79.8577 50.8552C79.7944 50.9185 79.7132 50.9501 79.6138 50.9501H75.5547V54.2919C75.5547 54.3823 75.5231 54.4592 75.4602 54.5221C75.3969 54.5854 75.3159 54.6167 75.2166 54.6167H73.9992C73.9087 54.6167 73.8318 54.5854 73.7689 54.5221Z" fill="#454545"/>
<path d="M84.6205 54.5221C84.5572 54.4592 84.5259 54.3823 84.5259 54.2919V45.4838C84.5259 45.3845 84.555 45.3035 84.6138 45.2402C84.6723 45.1773 84.7511 45.1454 84.8507 45.1454H86.0954C86.1947 45.1454 86.2757 45.1773 86.3389 45.2402C86.4019 45.3035 86.4335 45.3845 86.4335 45.4838V48.9609H90.3844V45.4838C90.3844 45.3845 90.4161 45.3035 90.4793 45.2402C90.5423 45.1773 90.6188 45.1454 90.7093 45.1454H91.9675C92.0668 45.1454 92.1456 45.1773 92.2044 45.2402C92.2629 45.3035 92.292 45.3845 92.292 45.4838V54.2919C92.292 54.3823 92.2629 54.4592 92.2044 54.5221C92.1456 54.5854 92.0668 54.6167 91.9675 54.6167H90.7093C90.6188 54.6167 90.5423 54.5854 90.4793 54.5221C90.4161 54.4592 90.3844 54.3823 90.3844 54.2919V50.6797H86.4335V54.2919C86.4335 54.3823 86.4019 54.4592 86.3389 54.5221C86.2757 54.5854 86.1947 54.6167 86.0954 54.6167H84.8507C84.7603 54.6167 84.6837 54.5854 84.6205 54.5221Z" fill="#454545"/>
<path d="M97.2035 54.5221C97.1402 54.4592 97.1089 54.3823 97.1089 54.2919V45.4702C97.1089 45.3712 97.1402 45.2924 97.2035 45.2336C97.2664 45.1748 97.3433 45.1454 97.4337 45.1454H98.7321C98.8315 45.1454 98.9102 45.1748 98.9694 45.2336C99.0279 45.2924 99.057 45.3712 99.057 45.4702V54.2919C99.057 54.3823 99.0279 54.4592 98.9694 54.5221C98.9102 54.5854 98.8315 54.6167 98.7321 54.6167H97.4337C97.3433 54.6167 97.2664 54.5854 97.2035 54.5221Z" fill="#454545"/>
<path d="M107.662 49.5024C108.203 49.5024 108.61 49.3832 108.88 49.144C109.151 48.9049 109.286 48.5554 109.286 48.0952C109.286 47.6353 109.151 47.2813 108.88 47.033C108.61 46.7851 108.203 46.6611 107.662 46.6611H105.781V49.5024H107.662ZM103.968 54.5221C103.905 54.4592 103.874 54.3823 103.874 54.2922V45.4838C103.874 45.3845 103.903 45.3035 103.962 45.2402C104.02 45.1773 104.099 45.1457 104.198 45.1457H107.703C108.812 45.1457 109.68 45.4028 110.307 45.9168C110.934 46.4311 111.248 47.1618 111.248 48.1088C111.248 48.7673 111.09 49.3196 110.774 49.7662C110.458 50.2128 110.016 50.5355 109.448 50.7338L111.41 54.184C111.437 54.2381 111.451 54.2877 111.451 54.3327C111.451 54.4139 111.421 54.4816 111.363 54.5357C111.304 54.5898 111.239 54.6167 111.167 54.6167H109.922C109.777 54.6167 109.665 54.5829 109.584 54.5155C109.502 54.4478 109.43 54.3599 109.367 54.2517L107.635 51.045H105.781V54.2922C105.781 54.3823 105.75 54.4592 105.687 54.5221C105.624 54.5854 105.542 54.6167 105.443 54.6167H104.198C104.108 54.6167 104.031 54.5854 103.968 54.5221Z" fill="#454545"/>
<path d="M122.708 54.3869C122.131 54.1431 121.694 53.8233 121.396 53.426C121.098 53.0294 120.94 52.5964 120.922 52.127C120.922 52.0552 120.949 51.9897 121.003 51.9312C121.057 51.8727 121.125 51.8429 121.206 51.8429H122.437C122.537 51.8429 122.618 51.8657 122.681 51.9106C122.744 51.9558 122.803 52.0191 122.857 52.1004C122.947 52.4069 123.152 52.664 123.473 52.8712C123.792 53.079 124.232 53.1825 124.792 53.1825C125.423 53.1825 125.899 53.0765 126.219 52.8649C126.539 52.6527 126.7 52.362 126.7 51.9919C126.7 51.7483 126.618 51.5453 126.456 51.383C126.293 51.2208 126.048 51.0787 125.719 50.957C125.389 50.8352 124.9 50.6887 124.25 50.517C123.186 50.2646 122.406 49.9309 121.91 49.5159C121.414 49.1012 121.166 48.5056 121.166 47.7297C121.166 47.2069 121.31 46.74 121.599 46.3295C121.887 45.9192 122.3 45.5966 122.837 45.3619C123.373 45.1275 123.998 45.0102 124.711 45.0102C125.459 45.0102 126.106 45.1411 126.652 45.4027C127.198 45.6643 127.613 45.9913 127.897 46.3836C128.181 46.7761 128.332 47.1661 128.35 47.5539C128.35 47.6263 128.323 47.6918 128.269 47.7503C128.215 47.8088 128.147 47.8379 128.066 47.8379H126.781C126.582 47.8379 126.447 47.7569 126.375 47.5944C126.33 47.3059 126.154 47.0645 125.847 46.8707C125.54 46.6768 125.161 46.5797 124.711 46.5797C124.214 46.5797 123.824 46.6745 123.54 46.864C123.256 47.0532 123.114 47.3287 123.114 47.6892C123.114 47.9328 123.186 48.1359 123.33 48.2981C123.475 48.4607 123.7 48.6024 124.007 48.7245C124.314 48.846 124.76 48.9836 125.346 49.137C126.149 49.3176 126.788 49.5203 127.261 49.7458C127.735 49.9717 128.084 50.2554 128.31 50.5983C128.535 50.9411 128.648 51.3786 128.648 51.9106C128.648 52.497 128.488 53.0047 128.168 53.433C127.847 53.8616 127.396 54.1886 126.814 54.4138C126.233 54.6393 125.558 54.752 124.792 54.752C123.98 54.752 123.285 54.6305 122.708 54.3869Z" fill="#454545"/>
<path d="M132.991 54.5221C132.928 54.4592 132.896 54.3823 132.896 54.2919V45.4838C132.896 45.3845 132.926 45.3035 132.984 45.2402C133.043 45.1773 133.122 45.1454 133.221 45.1454H139.188C139.287 45.1454 139.368 45.1773 139.432 45.2402C139.495 45.3035 139.526 45.3845 139.526 45.4838V46.3906C139.526 46.4896 139.495 46.5684 139.432 46.6272C139.368 46.6857 139.287 46.7148 139.188 46.7148H134.75V49.083H138.89C138.989 49.083 139.071 49.1146 139.134 49.1776C139.197 49.2408 139.229 49.3221 139.229 49.4211V50.2736C139.229 50.3729 139.197 50.4516 139.134 50.5105C139.071 50.569 138.989 50.5984 138.89 50.5984H134.75V53.0472H139.296C139.396 53.0472 139.477 53.0766 139.54 53.1351C139.603 53.194 139.634 53.273 139.634 53.3721V54.2919C139.634 54.3915 139.603 54.4703 139.54 54.5288C139.477 54.5876 139.396 54.6167 139.296 54.6167H133.221C133.131 54.6167 133.054 54.5854 132.991 54.5221Z" fill="#454545"/>
<path d="M147.821 49.5024C148.362 49.5024 148.768 49.3832 149.038 49.144C149.309 48.9049 149.444 48.5554 149.444 48.0952C149.444 47.6353 149.309 47.2813 149.038 47.033C148.768 46.7851 148.362 46.6611 147.821 46.6611H145.94V49.5024H147.821ZM144.127 54.5221C144.064 54.4592 144.032 54.3823 144.032 54.2922V45.4838C144.032 45.3845 144.061 45.3035 144.12 45.2402C144.179 45.1773 144.257 45.1457 144.357 45.1457H147.861C148.971 45.1457 149.839 45.4028 150.466 45.9168C151.093 46.4311 151.406 47.1618 151.406 48.1088C151.406 48.7673 151.248 49.3196 150.933 49.7662C150.617 50.2128 150.175 50.5355 149.607 50.7338L151.569 54.184C151.596 54.2381 151.609 54.2877 151.609 54.3327C151.609 54.4139 151.58 54.4816 151.521 54.5357C151.462 54.5898 151.397 54.6167 151.325 54.6167H150.08C149.936 54.6167 149.823 54.5829 149.742 54.5155C149.661 54.4478 149.588 54.3599 149.525 54.2517L147.794 51.045H145.94V54.2922C145.94 54.3823 145.908 54.4592 145.845 54.5221C145.782 54.5854 145.701 54.6167 145.602 54.6167H144.357C144.267 54.6167 144.19 54.5854 144.127 54.5221Z" fill="#454545"/>
<path d="M157.792 54.2383L154.897 45.552C154.888 45.5248 154.883 45.484 154.883 45.4299C154.883 45.3489 154.911 45.2812 154.965 45.2271C155.018 45.173 155.086 45.1458 155.167 45.1458H156.372C156.489 45.1458 156.583 45.1775 156.656 45.2404C156.728 45.3037 156.778 45.3714 156.805 45.4435L159.064 52.3711L161.337 45.4435C161.355 45.3714 161.4 45.3037 161.473 45.2404C161.545 45.1775 161.64 45.1458 161.757 45.1458H162.974C163.046 45.1458 163.112 45.173 163.171 45.2271C163.229 45.2812 163.259 45.3489 163.259 45.4299L163.231 45.552L160.349 54.2383C160.259 54.491 160.083 54.6172 159.822 54.6172H158.32C158.049 54.6172 157.874 54.491 157.792 54.2383Z" fill="#454545"/>
<path d="M167.494 54.5221C167.43 54.4592 167.399 54.3823 167.399 54.2919V45.4838C167.399 45.3845 167.428 45.3035 167.487 45.2402C167.545 45.1773 167.624 45.1454 167.724 45.1454H173.69C173.79 45.1454 173.871 45.1773 173.934 45.2402C173.997 45.3035 174.029 45.3845 174.029 45.4838V46.3906C174.029 46.4896 173.997 46.5684 173.934 46.6272C173.871 46.6857 173.79 46.7148 173.69 46.7148H169.252V49.083H173.393C173.492 49.083 173.573 49.1146 173.636 49.1776C173.699 49.2408 173.731 49.3221 173.731 49.4211V50.2736C173.731 50.3729 173.699 50.4516 173.636 50.5105C173.573 50.569 173.492 50.5984 173.393 50.5984H169.252V53.0472H173.799C173.898 53.0472 173.979 53.0766 174.042 53.1351C174.105 53.194 174.137 53.273 174.137 53.3721V54.2919C174.137 54.3915 174.105 54.4703 174.042 54.5288C173.979 54.5876 173.898 54.6167 173.799 54.6167H167.724C167.633 54.6167 167.556 54.5854 167.494 54.5221Z" fill="#454545"/>
<path d="M182.323 49.5024C182.864 49.5024 183.27 49.3832 183.54 49.144C183.811 48.9049 183.946 48.5554 183.946 48.0952C183.946 47.6353 183.811 47.2813 183.54 47.033C183.27 46.7851 182.864 46.6611 182.323 46.6611H180.442V49.5024H182.323ZM178.629 54.5221C178.565 54.4592 178.534 54.3823 178.534 54.2922V45.4838C178.534 45.3845 178.563 45.3035 178.622 45.2402C178.681 45.1773 178.759 45.1457 178.859 45.1457H182.363C183.473 45.1457 184.341 45.4028 184.968 45.9168C185.595 46.4311 185.908 47.1618 185.908 48.1088C185.908 48.7673 185.75 49.3196 185.435 49.7662C185.119 50.2128 184.677 50.5355 184.109 50.7338L186.071 54.184C186.098 54.2381 186.111 54.2877 186.111 54.3327C186.111 54.4139 186.082 54.4816 186.023 54.5357C185.964 54.5898 185.899 54.6167 185.827 54.6167H184.582C184.438 54.6167 184.325 54.5829 184.244 54.5155C184.163 54.4478 184.09 54.3599 184.027 54.2517L182.296 51.045H180.442V54.2922C180.442 54.3823 180.41 54.4592 180.347 54.5221C180.284 54.5854 180.203 54.6167 180.104 54.6167H178.859C178.769 54.6167 178.692 54.5854 178.629 54.5221Z" fill="#454545"/>
<path d="M53.419 40.6505C52.6919 34.8511 50.2415 29.5568 50.2415 29.5568C16.4228 31.7564 30.7199 -1.52588e-05 30.7199 -1.52588e-05C30.7199 -1.52588e-05 22.3342 1.78709 14.9105 11.6854C7.48693 21.5835 13.8108 40.0049 13.8108 40.0049C5.28737 35.3309 4.73732 23.0957 4.73732 23.0957C0.00417935 34.7682 -0.846676 43.217 0.713642 49.2473C3.19503 61.4543 13.9885 70.6416 26.9281 70.6416C41.7026 70.6416 53.68 58.6645 53.68 43.8897C53.68 42.5527 53.5908 41.4862 53.419 40.6505Z" fill="#FF6900"/>
<path d="M45.3871 24.0688C45.3871 24.0688 49.5211 10.5881 34.0786 8.43594C34.0786 8.43594 28.6069 22.8229 45.3871 24.0688Z" fill="#FF6900"/>
</svg>
