<?xml version="1.0" encoding="utf-8"?>
<!-- Generator: Adobe Illustrator 24.0.1, SVG Export Plug-In . SVG Version: 6.00 Build 0)  -->
<svg version="1.1" id="Слой_1" xmlns="http://www.w3.org/2000/svg" xmlns:xlink="http://www.w3.org/1999/xlink" x="0px" y="0px"
	 viewBox="0 0 121.9 63.9" style="enable-background:new 0 0 121.9 63.9;" xml:space="preserve">
<style type="text/css">
	.st0{fill:#FFCB05;}
	.st1{fill:#2E3192;}
	.st2{enable-background:new    ;}
</style>
<g>
	<g>
		<g>
			<rect x="28.5" y="31.2" class="st0" width="1.8" height="32.7"/>
		</g>
		<g>
			<rect x="28.5" class="st1" width="1.8" height="32"/>
		</g>
	</g>
	<g>
		<g class="st2">
			<path d="M41.4,17.2V0.4H44l2.8,13.5l2.7-13.5H52v16.8h-1.8V3.7l-2.7,13.5h-1.8L43,3.8v13.4H41.4z"/>
			<path d="M53.9,17.2V0.4h1.9v16.8H53.9z"/>
			<path d="M57.7,17.2V0.4h2.4L64,12.6V0.4h1.7v16.8h-2L59.4,3.6v13.6H57.7z"/>
			<path d="M67.5,17.2V0.4h1.9v16.8H67.5z"/>
			<path d="M71.1,13.2v-1h1.8v1.1c0,1.6,0.7,2.4,2,2.4s2-0.8,2-2.4c0-0.5-0.1-1-0.3-1.4S76,11,75.6,10.7s-0.7-0.7-1.1-1
				s-0.8-0.7-1.2-1S72.6,8,72.3,7.6s-0.6-0.9-0.8-1.4s-0.3-1.1-0.3-1.8c0-1.3,0.3-2.4,0.9-3.1s1.5-1.1,2.8-1.1
				c1.2,0,2.2,0.4,2.8,1.1s0.9,1.8,0.9,3.1v0.5h-1.8V4.3c0-1.6-0.6-2.4-1.9-2.4S73,2.7,73,4.3c0,0.5,0.1,1,0.3,1.4s0.5,0.8,0.8,1.2
				s0.7,0.7,1.1,1s0.8,0.7,1.2,1s0.8,0.7,1.1,1.1s0.6,0.9,0.8,1.4s0.3,1.1,0.3,1.8c0,1.3-0.3,2.3-1,3.1s-1.6,1.1-2.8,1.1
				S72.6,17,72,16.3S71.1,14.5,71.1,13.2z"/>
			<path d="M79.6,2.1V0.4h8.1v1.7h-3.1v15.1h-1.8V2.1H79.6z"/>
			<path d="M88.9,17.2V0.4h3.7c1.3,0,2.2,0.3,2.8,1s0.9,1.6,0.9,2.9v1.4c0,1.9-0.7,3-2.1,3.5c0.7,0.2,1.3,0.6,1.6,1.2
				s0.5,1.4,0.5,2.3v2.6c0,0.9,0.1,1.6,0.3,2h-1.9c-0.2-0.5-0.3-1.2-0.3-2v-2.6c0-0.9-0.2-1.6-0.6-1.9s-1-0.6-1.8-0.6h-1.3v7.2H88.9
				z M90.8,8.3h1.4c0.8,0,1.4-0.2,1.8-0.5s0.6-0.9,0.6-1.8V4.4c0-0.8-0.2-1.3-0.5-1.7s-0.8-0.6-1.5-0.6h-1.8V8.3z"/>
			<path d="M97.5,0.4h1.9l2.6,8.3l2.6-8.3h1.8l-3.5,10.7v6.1h-1.9v-6L97.5,0.4z"/>
		</g>
		<g class="st2">
			<path d="M41.4,36.4v-8.7c0-1.3,0.3-2.4,1-3.1c0.6-0.8,1.6-1.1,2.9-1.1c1.3,0,2.2,0.4,2.9,1.1s1,1.8,1,3.1v8.7
				c0,1.3-0.3,2.3-1,3.1s-1.6,1.1-2.9,1.1c-1.2,0-2.2-0.4-2.8-1.1S41.4,37.7,41.4,36.4z M43.2,36.5c0,0.8,0.2,1.4,0.5,1.8
				c0.3,0.4,0.8,0.6,1.5,0.6c1.3,0,2-0.8,2-2.4v-8.9c0-0.8-0.2-1.4-0.5-1.8s-0.8-0.6-1.5-0.6c-0.7,0-1.2,0.2-1.5,0.6
				c-0.3,0.4-0.5,1-0.5,1.8V36.5z"/>
			<path d="M50.8,40.4V23.6h6.7v1.7h-4.8v6.1h3.9v1.7h-3.9v7.3H50.8z"/>
			<path d="M62.7,40.4V23.6h1.9v7.6h4.1v-7.6h1.9v16.8h-1.9v-7.6h-4.1v7.6H62.7z"/>
			<path d="M72.5,40.4V23.6h6.9v1.7h-5v5.7h4.1v1.7h-4.1v6h5v1.7H72.5z"/>
			<path d="M80.7,40.4l3.2-16.8h2.8l3.2,16.8H88L87.3,37H83l-0.6,3.4H80.7z M83.3,35.4H87l-1.8-9.6L83.3,35.4z"/>
			<path d="M91.3,40.4V23.6h1.9v15.1h4.8v1.7H91.3z"/>
			<path d="M97.5,25.3v-1.7h8.1v1.7h-3.1v15.1h-1.8V25.3H97.5z"/>
			<path d="M106.8,40.4V23.6h1.9v7.6h4.1v-7.6h1.9v16.8h-1.9v-7.6h-4.1v7.6H106.8z"/>
		</g>
		<g class="st2">
			<path d="M41.4,59.8v-8.7c0-1.3,0.3-2.4,1-3.1c0.6-0.8,1.6-1.1,2.9-1.1c1.3,0,2.2,0.4,2.9,1.1s1,1.8,1,3.1v8.7
				c0,1.3-0.3,2.3-1,3.1S46.5,64,45.2,64c-1.2,0-2.2-0.4-2.8-1.1S41.4,61.1,41.4,59.8z M43.2,59.9c0,0.8,0.2,1.4,0.5,1.8
				c0.3,0.4,0.8,0.6,1.5,0.6c1.3,0,2-0.8,2-2.4V51c0-0.8-0.2-1.4-0.5-1.8s-0.8-0.6-1.5-0.6c-0.7,0-1.2,0.2-1.5,0.6
				c-0.3,0.4-0.5,1-0.5,1.8V59.9z"/>
			<path d="M50.9,63.9V47.1h6.7v1.7h-4.8v6.1h3.9v1.7h-3.9v7.3H50.9z"/>
			<path d="M62.7,59.8V47.1h1.8v12.8c0,1.6,0.7,2.4,2,2.4c1.3,0,2-0.8,2-2.4V47.1h1.8v12.8c0,1.3-0.3,2.4-0.9,3.1
				c-0.6,0.8-1.6,1.1-2.8,1.1c-1.2,0-2.2-0.4-2.8-1.1C63,62.2,62.7,61.1,62.7,59.8z"/>
			<path d="M72,63.9V47.1h1.9v8.1l4.5-8.1h1.9L76,54.7l4.4,9.1h-1.9l-3.6-7.3l-1,1.7v5.6H72z"/>
			<path d="M81.8,63.9V47.1h3.7c1.3,0,2.2,0.3,2.8,1s0.9,1.6,0.9,2.9v1.4c0,1.9-0.7,3-2.1,3.5c0.7,0.2,1.3,0.6,1.6,1.2
				s0.5,1.4,0.5,2.3v2.6c0,0.9,0.1,1.6,0.3,2h-1.9c-0.2-0.5-0.3-1.2-0.3-2v-2.6c0-0.9-0.2-1.6-0.6-1.9s-1-0.6-1.8-0.6h-1.3v7.2H81.8
				z M83.7,55h1.4c0.8,0,1.4-0.2,1.8-0.5s0.6-0.9,0.6-1.8v-1.6c0-0.8-0.2-1.3-0.5-1.7s-0.8-0.6-1.5-0.6h-1.8V55z"/>
			<path d="M90.8,63.9L94,47.1h2.8l3.2,16.8h-1.9l-0.6-3.4h-4.3l-0.6,3.4H90.8z M93.5,58.9h3.7l-1.8-9.6L93.5,58.9z"/>
			<path d="M101.4,63.9V47.1h1.9v16.8H101.4z"/>
			<path d="M105.2,63.9V47.1h2.4l3.9,12.2V47.1h1.7v16.8h-2l-4.3-13.6v13.6H105.2z"/>
			<path d="M115,63.9V47.1h6.9v1.7h-5v5.7h4.1v1.7h-4.1v6h5v1.7H115z"/>
		</g>
	</g>
	<g>
		<path d="M13.8,9.4c-0.6,4.9-0.8,7.1-0.8,7.1s0.1,0,0.4,0c0.3,0,1.6,0.3,1.6,1.5s-1.1,1.6-1.6,1.6s-0.5-0.1-0.5-0.1
			s-2.4-3.4-2.4-8.5c0-3.2,0.2-6.2,0.2-7.9c0-0.3,0-1.9-1.2-3.1C8.3,1.2,8.2,2.8,8.2,3.1c0,1.7,0.2,4.6,0.2,7.9
			c0,5.1-2.4,8.5-2.4,8.5s0,0.1-0.5,0.1S3.9,19.2,3.9,18s1.3-1.5,1.6-1.5s0.4,0,0.4,0S5.6,14.3,5,9.4C4,4.1,0,2.3,0,2.3V25h5.3
			c0,0,0.4,3.2,3.2,5.3c0,0,0.9,0.8,0.9,1c0-0.3,0.9-1,0.9-1c2.8-2,3.2-5.3,3.2-5.3h5.3V2.3C18.8,2.3,14.9,4.1,13.8,9.4z M1.6,5.6
			c0,0,1.4,1.8,1.8,3.9c0.2,1.9,0.7,5.7,0.7,5.7s-1.4,0.6-1.7,2c-0.3,0-0.9,0-0.9,0L1.6,5.6L1.6,5.6z M5.1,23.5H1.6v-4.7h0.9
			c0.4,2,2.6,2.4,3,2.4C5.1,22.2,5.1,23.5,5.1,23.5z M8.6,28.3C7.1,26.9,7,25,7,25h1.6C8.6,25,8.6,27.4,8.6,28.3z M6.7,23.5
			c0-1,0.1-1.5,0.3-1.9c1.6,0.3,1.7,1.9,1.7,1.9H6.7z M9.4,21.2c0,0-1.4-0.9-1.8-1.2c1.1-1.7,1.8-4.3,1.8-4.3s0.7,2.6,1.8,4.3
			C10.8,20.3,9.4,21.2,9.4,21.2z M10.2,28.3c0-0.9,0-3.2,0-3.2h1.6C11.8,25,11.7,26.9,10.2,28.3z M10.2,23.5c0,0,0.1-1.7,1.7-1.9
			c0.1,0.4,0.3,1,0.3,1.9H10.2z M17.2,23.5h-3.5c0,0,0-1.3-0.3-2.4c0.3,0,2.5-0.3,3-2.4h0.9L17.2,23.5L17.2,23.5z M17.2,17.2
			c0,0-0.6,0-0.9,0c-0.3-1.4-1.7-2-1.7-2s0.5-3.8,0.7-5.7c0.4-2.1,1.8-3.9,1.8-3.9L17.2,17.2L17.2,17.2z"/>
	</g>
</g>
</svg>
